<?xml version="1.0" encoding="utf-8"?>
<!-- Generator: Adobe Illustrator 25.0.0, SVG Export Plug-In . SVG Version: 6.00 Build 0)  -->
<svg version="1.1" id="Capa_1" xmlns="http://www.w3.org/2000/svg" xmlns:xlink="http://www.w3.org/1999/xlink" x="0px" y="0px"
	 viewBox="0 0 510.7 127.6" style="enable-background:new 0 0 510.7 127.6;" xml:space="preserve">
<style type="text/css">
	.st0{display:none;fill:none;stroke:#000000;stroke-width:14;stroke-miterlimit:10;}
	.st1{fill:#FFFFFF;}
	.st2{display:none;}
	.st3{display:inline;}
	.st4{fill:none;stroke:#FFFFFF;stroke-width:15;stroke-miterlimit:10;}
</style>
<line class="st0" x1="20.2" y1="-1" x2="504.2" y2="-1"/>
<line class="st0" x1="22.3" y1="128.3" x2="506.3" y2="128.3"/>
<path class="st1" d="M150.6,75.6V15.6c0-5.1,4-9.2,9-9.2s9.1,4.1,9.1,9.2v59.9c0,8.5,4.3,26.7,27.2,26.7c21.5,0,26.6-16.7,26.6-26.6
	V15.6c0-5.1,4.2-9.2,9.1-9.2c4.9,0,9,4.1,9,9.2v60.1c0,21.2-14.2,45.2-44.6,45.2C162.5,120.8,150.6,93.8,150.6,75.6z"/>
<path class="st1" d="M310,116.1l-46.9-95.9c-2.4-4.6-0.6-10.4,3.9-12.8c4.3-2.5,9.9-0.6,12.1,4.1L317.9,91l39-79.4
	c2.2-4.7,7.8-6.6,12.1-4.1c4.5,2.4,6.3,8.2,3.9,12.8L326,116.1c-1.5,3.2-4.6,5.2-8.1,5.2C314.6,121.3,311.5,119.3,310,116.1z"/>
<g class="st2">
	<path id="XMLID_1_" class="st3" d="M617.7,65.9l-47.4,27.3c-2.1,1.2-4.6-0.3-4.6-2.7l0-54.7c0-2.4,2.6-3.9,4.6-2.7l47.4,27.3
		C619.7,61.8,619.7,64.7,617.7,65.9z"/>
	<path class="st3" d="M526.1,63.8c0-31.7,26.4-57,58.1-57c31.8,0,58.1,25.2,58.1,57c0,32-26.1,57-58.1,57
		C552.4,120.8,526.1,95.6,526.1,63.8z M584.2,102.7c21.9,0,40-17.2,40-39s-18.2-39-40-39c-21.8,0-40,17.2-40,39
		S562.2,102.7,584.2,102.7z"/>
</g>
<g>
	<path class="st1" d="M125.3,118.6L125.3,118.6c-4,3.3-9.9,2.7-13.1-1.2L77.1,74.8c-3.3-4-2.7-9.9,1.2-13.1l0,0
		c4-3.3,9.9-2.7,13.1,1.2l35.1,42.5C129.8,109.4,129.2,115.3,125.3,118.6z"/>
	<path class="st1" d="M14,63.9C14,31.3,41.1,6.8,72.1,6.8c33.1,0,58.3,26.4,58.3,57.1c0,12.5-4.3,24.2-10.9,33.1l7.2,8.6
		c3.3,4,2.7,9.8-1.2,13.1c-3.7,2.8-9.4,3.3-13.1-1.2l-6.1-7.5c-9.4,6.7-21.2,10.9-34.1,10.9C39.2,121,14,94.5,14,63.9z M72.1,102.6
		c21.6,0,39.7-17,39.7-38.6c0-21.8-17.9-38.6-39.7-38.6c-21.9,0-39.7,17.3-39.7,38.6C32.5,85.3,50.8,102.6,72.1,102.6z"/>
</g>
<ellipse cx="446.7" cy="63.7" rx="0.1" ry="0.1"/>
<path class="st4" d="M443.6,114.2l-44.1-24.5c0,0-0.1-0.1-0.1-0.1l0.1-50.5c0,0,0-0.1,0.1-0.1l44.2-26c0,0,0.1,0,0.1,0L488,37.5
	c0,0,0.1,0.1,0.1,0.1L488,88.1c0,0,0,0.1-0.1,0.1l-44.2,26C443.7,114.2,443.7,114.2,443.6,114.2z"/>
<path id="XMLID_2_" class="st1" d="M472.5,66.6l-41.1,23.7c-2.1,1.2-4.6-0.3-4.6-2.7l0-47.5c0-2.4,2.6-3.9,4.6-2.7l41.1,23.7
	C474.5,62.4,474.5,65.4,472.5,66.6z"/>
</svg>
